<?xml version="1.0" encoding="UTF-8" standalone="no"?>
<!-- Created with Inkscape (http://www.inkscape.org/) -->

<svg
   width="128"
   height="128"
   viewBox="0 0 33.866666 33.866666"
   version="1.1"
   id="svg1"
   inkscape:version="1.4 (86a8ad7, 2024-10-11)"
   sodipodi:docname="I.svg"
   xmlns:inkscape="http://www.inkscape.org/namespaces/inkscape"
   xmlns:sodipodi="http://sodipodi.sourceforge.net/DTD/sodipodi-0.dtd"
   xmlns="http://www.w3.org/2000/svg"
   xmlns:svg="http://www.w3.org/2000/svg">
  <sodipodi:namedview
     id="namedview1"
     pagecolor="#ffffff"
     bordercolor="#000000"
     borderopacity="0.25"
     inkscape:showpageshadow="2"
     inkscape:pageopacity="0.0"
     inkscape:pagecheckerboard="0"
     inkscape:deskcolor="#d1d1d1"
     inkscape:document-units="mm"
     showgrid="true"
     showguides="true"
     inkscape:zoom="4.3087087"
     inkscape:cx="127.41636"
     inkscape:cy="66.725328"
     inkscape:window-width="1920"
     inkscape:window-height="1057"
     inkscape:window-x="1912"
     inkscape:window-y="-8"
     inkscape:window-maximized="1"
     inkscape:current-layer="layer1"
     inkscape:lockguides="true">
    <inkscape:grid
       id="grid1"
       units="px"
       originx="0"
       originy="0"
       spacingx="0.26458332"
       spacingy="0.26458333"
       empcolor="#0099e5"
       empopacity="0.30196078"
       color="#0099e5"
       opacity="0.14901961"
       empspacing="4"
       enabled="true"
       visible="true" />
    <sodipodi:guide
       position="16.933332,56.091665"
       orientation="1,0"
       id="guide1"
       inkscape:locked="true" />
    <sodipodi:guide
       position="-6.3499997,16.933334"
       orientation="0,-1"
       id="guide2"
       inkscape:locked="true" />
  </sodipodi:namedview>
  <defs
     id="defs1" />
  <g
     inkscape:label="Ebene 1"
     inkscape:groupmode="layer"
     id="layer1">
    <path
       id="path1"
       style="fill:#0e242f;fill-opacity:0.1;stroke-width:4.23333;stroke-linecap:round"
       d="M 16.933333 0 A 16.933332 16.933332 0 0 0 0 16.933333 A 16.933332 16.933332 0 0 0 16.933333 33.866667 A 16.933332 16.933332 0 0 0 33.866667 16.933333 A 16.933332 16.933332 0 0 0 16.933333 0 z M 17.780827 8.2563436 L 17.780827 22.751583 L 20.455082 22.751583 C 21.092424 22.751583 21.544594 22.876468 21.811589 23.126237 C 22.087196 23.367393 22.225 23.686066 22.225 24.082251 C 22.225 24.469824 22.087196 24.788496 21.811589 25.038265 C 21.544594 25.279421 21.092424 25.4 20.455082 25.4 L 12.458154 25.4 C 11.820812 25.4 11.364336 25.279421 11.088729 25.038265 C 10.821734 24.788496 10.688236 24.465517 10.688236 24.069332 C 10.688236 23.681759 10.821734 23.367393 11.088729 23.126237 C 11.364336 22.876468 11.820812 22.751583 12.458154 22.751583 L 15.13241 22.751583 L 15.13241 11.705745 L 12.768213 12.325863 C 12.389253 12.429215 12.105032 12.480892 11.915552 12.480892 C 11.579655 12.480892 11.286822 12.347394 11.037052 12.0804 C 10.795896 11.813405 10.675317 11.48612 10.675317 11.098547 C 10.675317 10.745426 10.765751 10.469817 10.946619 10.271724 C 11.127486 10.065019 11.506447 9.884151 12.0835 9.7291219 L 17.780827 8.2563436 z " />
  </g>
</svg>
