<?xml version="1.0" encoding="UTF-8" standalone="no"?>
<!-- Created with Inkscape (http://www.inkscape.org/) -->

<svg
   width="128"
   height="128"
   viewBox="0 0 33.866666 33.866666"
   version="1.1"
   id="svg1"
   inkscape:version="1.4 (86a8ad7, 2024-10-11)"
   sodipodi:docname="II.svg"
   xmlns:inkscape="http://www.inkscape.org/namespaces/inkscape"
   xmlns:sodipodi="http://sodipodi.sourceforge.net/DTD/sodipodi-0.dtd"
   xmlns="http://www.w3.org/2000/svg"
   xmlns:svg="http://www.w3.org/2000/svg">
  <sodipodi:namedview
     id="namedview1"
     pagecolor="#ffffff"
     bordercolor="#000000"
     borderopacity="0.25"
     inkscape:showpageshadow="2"
     inkscape:pageopacity="0.0"
     inkscape:pagecheckerboard="0"
     inkscape:deskcolor="#d1d1d1"
     inkscape:document-units="mm"
     showgrid="true"
     showguides="true"
     inkscape:zoom="4.3087087"
     inkscape:cx="127.41636"
     inkscape:cy="66.725328"
     inkscape:window-width="1920"
     inkscape:window-height="1057"
     inkscape:window-x="1912"
     inkscape:window-y="-8"
     inkscape:window-maximized="1"
     inkscape:current-layer="layer1"
     inkscape:lockguides="true">
    <inkscape:grid
       id="grid1"
       units="px"
       originx="0"
       originy="0"
       spacingx="0.26458332"
       spacingy="0.26458333"
       empcolor="#0099e5"
       empopacity="0.30196078"
       color="#0099e5"
       opacity="0.14901961"
       empspacing="4"
       enabled="true"
       visible="true" />
    <sodipodi:guide
       position="16.933332,56.091665"
       orientation="1,0"
       id="guide1"
       inkscape:locked="true" />
    <sodipodi:guide
       position="-6.3499997,16.933334"
       orientation="0,-1"
       id="guide2"
       inkscape:locked="true" />
  </sodipodi:namedview>
  <defs
     id="defs1" />
  <g
     inkscape:label="Ebene 1"
     inkscape:groupmode="layer"
     id="layer1">
    <path
       id="path1"
       style="fill:#0e242f;fill-opacity:0.1;stroke-width:4.23333;stroke-linecap:round"
       d="M 16.933333 0 A 16.933332 16.933332 0 0 0 0 16.933333 A 16.933332 16.933332 0 0 0 16.933333 33.866667 A 16.933332 16.933332 0 0 0 33.866667 16.933333 A 16.933332 16.933332 0 0 0 16.933333 0 z M 16.913696 8.2563436 C 18.584565 8.2563436 19.953994 8.7644965 21.021973 9.7807983 C 22.089951 10.788487 22.623942 12.011499 22.623942 13.449825 C 22.623942 14.181907 22.468912 14.862315 22.158854 15.491044 C 21.857409 16.111161 21.125324 16.972437 19.962606 18.074866 C 19.049657 18.944751 17.271122 20.503661 14.627014 22.751583 L 20.427694 22.751583 C 20.746365 22.493201 21.047811 22.36401 21.332031 22.36401 C 21.736829 22.36401 22.055502 22.497507 22.288045 22.764502 C 22.529202 23.031497 22.64978 23.487973 22.64978 24.133927 L 22.64978 25.4 L 10.583333 25.4 L 10.583333 22.596554 C 15.354785 18.660537 18.235753 16.128385 19.226217 15.000118 C 19.725755 14.423065 19.975525 13.876155 19.975525 13.359391 C 19.975525 12.713437 19.691304 12.144994 19.122864 11.654069 C 18.563036 11.154531 17.813726 10.904761 16.874939 10.904761 C 15.927539 10.904761 15.139471 11.180369 14.510742 11.731584 C 14.183459 12.024416 13.920769 12.459361 13.722677 13.036414 C 13.602098 13.398148 13.43415 13.656531 13.218831 13.81156 C 13.012126 13.966589 12.753743 14.044104 12.443685 14.044104 C 12.08195 14.044104 11.767585 13.914913 11.50059 13.656531 C 11.242208 13.398149 11.113017 13.096702 11.113017 12.752193 C 11.113017 12.23543 11.349868 11.589472 11.823568 10.814327 C 12.30588 10.039181 13.003514 9.4190627 13.916463 8.9539754 C 14.838025 8.4888881 15.837105 8.2563436 16.913696 8.2563436 z " />
  </g>
</svg>
