<?xml version="1.0" encoding="UTF-8" standalone="no"?>
<!-- Created with Inkscape (http://www.inkscape.org/) -->

<svg
   width="128"
   height="128"
   viewBox="0 0 33.866666 33.866666"
   version="1.1"
   id="svg1"
   inkscape:version="1.4 (86a8ad7, 2024-10-11)"
   sodipodi:docname="III.svg"
   xmlns:inkscape="http://www.inkscape.org/namespaces/inkscape"
   xmlns:sodipodi="http://sodipodi.sourceforge.net/DTD/sodipodi-0.dtd"
   xmlns="http://www.w3.org/2000/svg"
   xmlns:svg="http://www.w3.org/2000/svg">
  <sodipodi:namedview
     id="namedview1"
     pagecolor="#ffffff"
     bordercolor="#000000"
     borderopacity="0.25"
     inkscape:showpageshadow="2"
     inkscape:pageopacity="0.0"
     inkscape:pagecheckerboard="0"
     inkscape:deskcolor="#d1d1d1"
     inkscape:document-units="mm"
     showgrid="true"
     showguides="true"
     inkscape:zoom="4.3087087"
     inkscape:cx="127.41636"
     inkscape:cy="66.725328"
     inkscape:window-width="1920"
     inkscape:window-height="1057"
     inkscape:window-x="1912"
     inkscape:window-y="-8"
     inkscape:window-maximized="1"
     inkscape:current-layer="layer1"
     inkscape:lockguides="true">
    <inkscape:grid
       id="grid1"
       units="px"
       originx="0"
       originy="0"
       spacingx="0.26458332"
       spacingy="0.26458333"
       empcolor="#0099e5"
       empopacity="0.30196078"
       color="#0099e5"
       opacity="0.14901961"
       empspacing="4"
       enabled="true"
       visible="true" />
    <sodipodi:guide
       position="16.933332,56.091665"
       orientation="1,0"
       id="guide1"
       inkscape:locked="true" />
    <sodipodi:guide
       position="-6.3499997,16.933334"
       orientation="0,-1"
       id="guide2"
       inkscape:locked="true" />
  </sodipodi:namedview>
  <defs
     id="defs1" />
  <g
     inkscape:label="Ebene 1"
     inkscape:groupmode="layer"
     id="layer1">
    <path
       id="path1"
       style="fill:#0e242f;fill-opacity:0.1;stroke-width:4.23333;stroke-linecap:round"
       d="M 16.933333 0 A 16.933332 16.933332 0 0 0 0 16.933333 A 16.933332 16.933332 0 0 0 16.933333 33.866667 A 16.933332 16.933332 0 0 0 33.866667 16.933333 A 16.933332 16.933332 0 0 0 16.933333 0 z M 16.540592 8.2563436 C 18.177011 8.2563436 19.490457 8.7214327 20.48092 9.6516073 C 21.471384 10.581782 21.966618 11.701441 21.966618 13.010575 C 21.966618 13.690981 21.820201 14.328325 21.527368 14.922603 C 21.234535 15.508269 20.795285 16.050873 20.209619 16.550411 C 20.993377 17.0844 21.579045 17.704519 21.966618 18.410763 C 22.354191 19.108393 22.547978 19.892155 22.547978 20.76204 C 22.547978 21.700828 22.289595 22.570716 21.772831 23.3717 C 21.26468 24.164071 20.523983 24.766964 19.550745 25.180375 C 18.577506 25.585173 17.302818 25.787573 15.726689 25.787573 C 13.676859 25.787573 12.135175 25.468901 11.101648 24.831559 C 10.524595 24.469825 10.236068 24.039187 10.236068 23.539648 C 10.236068 23.160688 10.360953 22.842016 10.610722 22.583634 C 10.869104 22.31664 11.179163 22.183142 11.540898 22.183142 C 11.790667 22.183142 12.04905 22.26927 12.316044 22.441524 C 12.695004 22.699906 13.052434 22.872161 13.38833 22.958289 C 13.905094 23.078867 14.615646 23.139156 15.519983 23.139156 C 17.061661 23.139156 18.177014 22.941063 18.866032 22.544877 C 19.55505 22.140079 19.899561 21.571637 19.899561 20.839555 C 19.899561 20.296953 19.697161 19.775881 19.292362 19.276343 C 18.896177 18.768192 18.362186 18.376311 17.690393 18.100704 C 17.30282 17.945675 16.648251 17.838015 15.726689 17.777726 C 15.28744 17.751888 14.947235 17.61839 14.706079 17.377234 C 14.473535 17.127465 14.357263 16.821712 14.357263 16.459977 C 14.357263 16.081017 14.486455 15.762345 14.744836 15.503963 C 15.003218 15.245581 15.330503 15.11639 15.726689 15.11639 C 16.605187 15.11639 17.074582 15.112084 17.134871 15.103471 C 17.479381 15.06902 17.823891 14.957054 18.1684 14.767574 C 18.512909 14.578094 18.788518 14.319711 18.995223 13.992428 C 19.210541 13.656531 19.318201 13.312021 19.318201 12.958899 C 19.318201 12.399072 19.068431 11.916757 18.568892 11.511959 C 18.077967 11.098548 17.33727 10.891842 16.346806 10.891842 C 15.072122 10.891842 14.09888 11.26219 13.427087 12.002885 C 13.228995 12.218203 13.069659 12.356007 12.94908 12.416296 C 12.768213 12.511036 12.565813 12.558407 12.341882 12.558407 C 11.980148 12.558407 11.670088 12.429215 11.411707 12.170833 C 11.153325 11.912452 11.024133 11.593779 11.024133 11.214819 C 11.024133 10.620541 11.42032 10.043486 12.212691 9.4836589 C 13.366797 8.6654497 14.809434 8.2563436 16.540592 8.2563436 z " />
  </g>
</svg>
