<?xml version="1.0" encoding="UTF-8" standalone="no"?>
<!-- Created with Inkscape (http://www.inkscape.org/) -->

<svg
   width="128"
   height="128"
   viewBox="0 0 33.866666 33.866666"
   version="1.1"
   id="svg1"
   inkscape:version="1.3.2 (091e20e, 2023-11-25, custom)"
   sodipodi:docname="new.svg"
   xmlns:inkscape="http://www.inkscape.org/namespaces/inkscape"
   xmlns:sodipodi="http://sodipodi.sourceforge.net/DTD/sodipodi-0.dtd"
   xmlns="http://www.w3.org/2000/svg"
   xmlns:svg="http://www.w3.org/2000/svg">
  <sodipodi:namedview
     id="namedview1"
     pagecolor="#ffffff"
     bordercolor="#000000"
     borderopacity="0.25"
     inkscape:showpageshadow="2"
     inkscape:pageopacity="0.0"
     inkscape:pagecheckerboard="0"
     inkscape:deskcolor="#d1d1d1"
     inkscape:document-units="mm"
     showgrid="true"
     showguides="true"
     inkscape:zoom="6.0934344"
     inkscape:cx="83.860754"
     inkscape:cy="41.438044"
     inkscape:window-width="2560"
     inkscape:window-height="1417"
     inkscape:window-x="-8"
     inkscape:window-y="-8"
     inkscape:window-maximized="1"
     inkscape:current-layer="layer1">
    <inkscape:grid
       id="grid1"
       units="px"
       originx="0"
       originy="0"
       spacingx="0.26458332"
       spacingy="0.26458333"
       empcolor="#0099e5"
       empopacity="0.30196078"
       color="#0099e5"
       opacity="0.14901961"
       empspacing="4"
       enabled="true"
       visible="true" />
    <sodipodi:guide
       position="16.933332,17.4625"
       orientation="1,0"
       id="guide1"
       inkscape:locked="false" />
    <sodipodi:guide
       position="15.610416,16.933334"
       orientation="0,-1"
       id="guide2"
       inkscape:locked="false" />
  </sodipodi:namedview>
  <defs
     id="defs1" />
  <g
     inkscape:label="Ebene 1"
     inkscape:groupmode="layer"
     id="layer1">
    <rect
       style="fill:#0084c8;stroke-width:0.246945"
       id="rect1"
       width="29.633333"
       height="29.633333"
       x="2.1166666"
       y="2.1166666"
       ry="3.9310529" />
    <path
       id="path1"
       style="fill:#ffffff;stroke-width:79.9999;stroke-linejoin:round;stroke-dasharray:320, 160;stroke-opacity:0.560526"
       d="m 19.265491,2.9925822 c 0,0.3520897 0.0099,0.7283528 0.02687,1.1229289 0.001,0.025298 0.002,0.049981 0.0031,0.075448 0.03466,0.7624969 0.101646,1.6081059 0.19637,2.5207763 0.01302,0.1268638 0.02716,0.2562383 0.04134,0.386023 0.04834,0.43848 0.100741,0.8863994 0.161747,1.3565063 5.25e-4,0.00405 0.001,0.00835 0.0016,0.012402 0.05945,0.4575247 0.117158,0.910026 0.189136,1.398881 C 19.105161,9.3806099 18.275294,8.9149413 17.401522,8.4666667 17.13436,8.3296036 16.862747,8.1942077 16.587101,8.0604899 16.567783,8.0511325 16.548585,8.0419252 16.529224,8.0325846 16.271758,7.9081769 16.009748,7.78507 15.744775,7.6636149 c -0.032,-0.014636 -0.06349,-0.029332 -0.0956,-0.043925 -0.250186,-0.1139454 -0.504759,-0.2261566 -0.761711,-0.3374471 -0.04816,-0.020824 -0.09527,-0.041797 -0.14366,-0.062528 -0.29708,-0.1274574 -0.598132,-0.2533533 -0.904338,-0.377238 l -0.544669,1.6241903 -0.979785,2.9233353 c 0.465087,0.172255 1.429716,0.439251 2.89388,0.800985 2.032603,0.499539 3.264228,0.783761 3.694865,0.852661 -0.137804,0.137803 -0.473702,0.465089 -1.007691,0.981852 -1.343585,1.274683 -2.635499,2.609662 -3.875732,4.004924 l 3.90157,3.023071 c 0.782059,-1.207735 1.506778,-2.370925 2.18643,-3.499011 0.250356,-0.415539 0.495302,-0.826576 0.733289,-1.232483 0.0011,-0.0019 0.002,-0.0038 0.0031,-0.0057 0.238999,-0.40769 0.471089,-0.810008 0.694532,-1.205611 l 3.488159,5.761922 3.953247,-2.60966 c -0.361735,-0.447862 -0.852662,-1.024917 -1.472778,-1.731161 l -3.100586,-3.488159 c 2.514915,-0.41341 4.728395,-0.835436 6.640421,-1.266072 L 29.678292,7.1008586 c -0.654568,0.2497692 -1.339282,0.5253773 -2.054138,0.8268229 -0.714857,0.3014456 -1.459861,0.6287305 -2.235006,0.9818522 -0.56844,0.2669942 -1.037835,0.4842082 -1.408183,0.6521566 -0.370347,0.1679482 -0.641649,0.286632 -0.813904,0.3555338 0.348816,-2.519222 0.56702,-4.4475329 0.654224,-5.7846598 0.02907,-0.4457089 0.04341,-0.8256176 0.04341,-1.1399821 z m -13.9738245,5.4740842 2e-7,21.1666666 H 20.108333 v -9.113139 c -0.284217,0.467375 -0.576617,0.940926 -0.896586,1.435055 -0.50581,0.779733 -1.570257,0.960164 -2.304769,0.390674 l -3.902087,-3.021521 c -0.727462,-0.562666 -0.82617,-1.623777 -0.214974,-2.31097 0.937418,-1.054596 1.936059,-2.039431 2.931604,-3.027206 -0.397783,-0.09639 -0.435904,-0.09223 -0.935343,-0.214974 l -0.0021,-0.0015 c -1.483128,-0.366418 -2.429926,-0.618698 -3.064413,-0.853695 -0.803268,-0.298012 -1.225197,-1.179604 -0.95343,-1.992126 l 0.824239,-2.4572143 z"
       sodipodi:nodetypes="cccccsccsccccccccccccccssccccccccscscsccccccccccccccccc" />
  </g>
</svg>
