<?xml version="1.0" encoding="UTF-8" standalone="no"?>
<!-- Created with Inkscape (http://www.inkscape.org/) -->

<svg
   width="128"
   height="128"
   viewBox="0 0 33.866666 33.866666"
   version="1.1"
   id="svg1"
   inkscape:version="1.3.2 (091e20e, 2023-11-25, custom)"
   sodipodi:docname="save.svg"
   xmlns:inkscape="http://www.inkscape.org/namespaces/inkscape"
   xmlns:sodipodi="http://sodipodi.sourceforge.net/DTD/sodipodi-0.dtd"
   xmlns="http://www.w3.org/2000/svg"
   xmlns:svg="http://www.w3.org/2000/svg">
  <sodipodi:namedview
     id="namedview1"
     pagecolor="#ffffff"
     bordercolor="#000000"
     borderopacity="0.25"
     inkscape:showpageshadow="2"
     inkscape:pageopacity="0.0"
     inkscape:pagecheckerboard="0"
     inkscape:deskcolor="#d1d1d1"
     inkscape:document-units="mm"
     showgrid="true"
     showguides="true"
     inkscape:zoom="4.3087087"
     inkscape:cx="8.7033036"
     inkscape:cy="130.31747"
     inkscape:window-width="2560"
     inkscape:window-height="1417"
     inkscape:window-x="-8"
     inkscape:window-y="-8"
     inkscape:window-maximized="1"
     inkscape:current-layer="layer1">
    <inkscape:grid
       id="grid1"
       units="px"
       originx="0"
       originy="0"
       spacingx="0.26458332"
       spacingy="0.26458333"
       empcolor="#0099e5"
       empopacity="0.30196078"
       color="#0099e5"
       opacity="0.14901961"
       empspacing="4"
       enabled="true"
       visible="true" />
    <sodipodi:guide
       position="16.933332,17.4625"
       orientation="1,0"
       id="guide1"
       inkscape:locked="false" />
    <sodipodi:guide
       position="15.610416,16.933334"
       orientation="0,-1"
       id="guide2"
       inkscape:locked="false" />
  </sodipodi:namedview>
  <defs
     id="defs1" />
  <g
     inkscape:label="Ebene 1"
     inkscape:groupmode="layer"
     id="layer1">
    <rect
       style="fill:#0084c8;stroke-width:0.246945"
       id="rect1"
       width="29.633333"
       height="29.633333"
       x="2.1166666"
       y="2.1166666"
       ry="3.9310529" />
    <path
       id="rect6"
       style="fill:#ffffff;stroke-width:4.23333;stroke-linecap:round;stroke-linejoin:round"
       d="M 6.35 6.35 L 6.35 25.238253 L 8.4666667 27.516667 L 27.516667 27.516667 L 27.516667 6.35 L 25.4 6.35 L 25.4 15.875 L 25.4 16.933333 L 24.341667 16.933333 L 9.525 16.933333 L 8.4666667 16.933333 L 8.4666667 6.35 L 6.35 6.35 z M 9.525 6.35 L 9.525 15.875 L 24.341667 15.875 L 24.341667 6.35 L 9.525 6.35 z M 11.641667 8.4666667 L 22.225 8.4666667 L 22.225 9.525 L 11.641667 9.525 L 11.641667 8.4666667 z M 11.641667 10.583333 L 22.225 10.583333 L 22.225 11.641667 L 11.641667 11.641667 L 11.641667 10.583333 z M 11.641667 12.7 L 22.225 12.7 L 22.225 13.758333 L 11.641667 13.758333 L 11.641667 12.7 z M 11.641667 19.05 L 22.225 19.05 L 22.225 26.458333 L 11.641667 26.458333 L 11.641667 19.05 z M 13.758333 20.108333 L 13.758333 25.4 L 15.875 25.4 L 15.875 20.108333 L 13.758333 20.108333 z " />
  </g>
</svg>
