<?xml version="1.0" encoding="UTF-8" standalone="no"?>
<!-- Created with Inkscape (http://www.inkscape.org/) -->

<svg
   width="128"
   height="128"
   viewBox="0 0 33.866666 33.866666"
   version="1.1"
   id="svg1"
   inkscape:version="1.4 (86a8ad7, 2024-10-11)"
   sodipodi:docname="V.svg"
   xmlns:inkscape="http://www.inkscape.org/namespaces/inkscape"
   xmlns:sodipodi="http://sodipodi.sourceforge.net/DTD/sodipodi-0.dtd"
   xmlns="http://www.w3.org/2000/svg"
   xmlns:svg="http://www.w3.org/2000/svg">
  <sodipodi:namedview
     id="namedview1"
     pagecolor="#ffffff"
     bordercolor="#000000"
     borderopacity="0.25"
     inkscape:showpageshadow="2"
     inkscape:pageopacity="0.0"
     inkscape:pagecheckerboard="0"
     inkscape:deskcolor="#d1d1d1"
     inkscape:document-units="mm"
     showgrid="true"
     showguides="true"
     inkscape:zoom="4.3087087"
     inkscape:cx="127.41636"
     inkscape:cy="66.725328"
     inkscape:window-width="1920"
     inkscape:window-height="1057"
     inkscape:window-x="1912"
     inkscape:window-y="-8"
     inkscape:window-maximized="1"
     inkscape:current-layer="layer1"
     inkscape:lockguides="true">
    <inkscape:grid
       id="grid1"
       units="px"
       originx="0"
       originy="0"
       spacingx="0.26458332"
       spacingy="0.26458333"
       empcolor="#0099e5"
       empopacity="0.30196078"
       color="#0099e5"
       opacity="0.14901961"
       empspacing="4"
       enabled="true"
       visible="true" />
    <sodipodi:guide
       position="16.933332,56.091665"
       orientation="1,0"
       id="guide1"
       inkscape:locked="true" />
    <sodipodi:guide
       position="-6.3499997,16.933334"
       orientation="0,-1"
       id="guide2"
       inkscape:locked="true" />
  </sodipodi:namedview>
  <defs
     id="defs1" />
  <g
     inkscape:label="Ebene 1"
     inkscape:groupmode="layer"
     id="layer1">
    <path
       id="path1"
       style="fill:#0e242f;fill-opacity:0.1;stroke-width:4.23333;stroke-linecap:round"
       d="M 16.933333 0 C 7.5813118 -5.5228481e-07 -5.5228481e-07 7.5813118 0 16.933333 C -1.1045696e-06 26.285355 7.5813114 33.866668 16.933333 33.866667 C 26.285356 33.866668 33.866668 26.285356 33.866667 16.933333 C 33.866668 7.5813114 26.285355 -1.1045696e-06 16.933333 0 z M 12.289172 8.2951009 L 20.389453 8.2951009 C 21.026795 8.2951009 21.478965 8.4199859 21.745959 8.669755 C 22.021567 8.9109114 22.159371 9.2295836 22.159371 9.625769 C 22.159371 10.013342 22.021567 10.332014 21.745959 10.581783 C 21.478965 10.822939 21.026795 10.943518 20.389453 10.943518 L 14.93759 10.943518 L 14.93759 14.09578 C 15.91944 13.785722 16.810861 13.630693 17.611845 13.630693 C 19.23965 13.630693 20.591854 14.186216 21.668445 15.297257 C 22.745036 16.408299 23.283333 17.842324 23.283333 19.59932 C 23.283333 21.407993 22.736423 22.829099 21.642607 23.862626 C 20.557403 24.887541 18.890834 25.4 16.642912 25.4 C 14.661984 25.4 13.094462 25.025345 11.940356 24.276038 C 11.268564 23.845401 10.932666 23.350167 10.932666 22.79034 C 10.932666 22.437218 11.061857 22.131465 11.320239 21.873083 C 11.587234 21.606089 11.9016 21.472591 12.263334 21.472591 C 12.56478 21.472591 12.892065 21.619008 13.245186 21.911841 C 13.598308 22.196061 13.968657 22.394154 14.35623 22.50612 C 14.907444 22.669762 15.613691 22.751583 16.474963 22.751583 C 18.076931 22.751583 19.170751 22.497506 19.756417 21.989355 C 20.342082 21.472592 20.634916 20.684524 20.634916 19.625159 C 20.634916 18.583019 20.350695 17.764806 19.782255 17.170528 C 19.222428 16.57625 18.498956 16.27911 17.611845 16.27911 C 16.655832 16.27911 15.566318 16.589169 14.343311 17.209285 C 14.067703 17.355702 13.826546 17.42891 13.61984 17.42891 C 13.24088 17.42891 12.922208 17.291106 12.663826 17.015499 C 12.414057 16.739892 12.289172 16.382462 12.289172 15.943213 L 12.289172 8.2951009 z " />
  </g>
</svg>
