<?xml version="1.0" encoding="UTF-8" standalone="no"?>
<!-- Created with Inkscape (http://www.inkscape.org/) -->

<svg
   width="128"
   height="128"
   viewBox="0 0 33.866666 33.866666"
   version="1.1"
   id="svg1"
   inkscape:version="1.4 (86a8ad7, 2024-10-11)"
   sodipodi:docname="VI.svg"
   xmlns:inkscape="http://www.inkscape.org/namespaces/inkscape"
   xmlns:sodipodi="http://sodipodi.sourceforge.net/DTD/sodipodi-0.dtd"
   xmlns="http://www.w3.org/2000/svg"
   xmlns:svg="http://www.w3.org/2000/svg">
  <sodipodi:namedview
     id="namedview1"
     pagecolor="#ffffff"
     bordercolor="#000000"
     borderopacity="0.25"
     inkscape:showpageshadow="2"
     inkscape:pageopacity="0.0"
     inkscape:pagecheckerboard="0"
     inkscape:deskcolor="#d1d1d1"
     inkscape:document-units="mm"
     showgrid="true"
     showguides="true"
     inkscape:zoom="4.3087087"
     inkscape:cx="127.41636"
     inkscape:cy="66.725328"
     inkscape:window-width="1920"
     inkscape:window-height="1057"
     inkscape:window-x="1912"
     inkscape:window-y="-8"
     inkscape:window-maximized="1"
     inkscape:current-layer="layer1"
     inkscape:lockguides="true">
    <inkscape:grid
       id="grid1"
       units="px"
       originx="0"
       originy="0"
       spacingx="0.26458332"
       spacingy="0.26458333"
       empcolor="#0099e5"
       empopacity="0.30196078"
       color="#0099e5"
       opacity="0.14901961"
       empspacing="4"
       enabled="true"
       visible="true" />
    <sodipodi:guide
       position="16.933332,56.091665"
       orientation="1,0"
       id="guide1"
       inkscape:locked="true" />
    <sodipodi:guide
       position="-6.3499997,16.933334"
       orientation="0,-1"
       id="guide2"
       inkscape:locked="true" />
  </sodipodi:namedview>
  <defs
     id="defs1" />
  <g
     inkscape:label="Ebene 1"
     inkscape:groupmode="layer"
     id="layer1">
    <path
       id="path1"
       style="fill:#0e242f;fill-opacity:0.1;stroke-width:4.23333;stroke-linecap:round"
       d="M 16.933333 0 C 7.5813121 -5.5228481e-07 -5.5228481e-07 7.5813121 0 16.933333 C -1.1045696e-06 26.285355 7.5813117 33.866668 16.933333 33.866667 C 26.285356 33.866668 33.866668 26.285356 33.866667 16.933333 C 33.866668 7.5813117 26.285355 -1.1045696e-06 16.933333 0 z M 19.111495 7.8687703 C 20.188086 7.8687703 21.023524 8.079783 21.617802 8.5018066 C 22.005375 8.7860267 22.199162 9.1477626 22.199162 9.5870117 C 22.199162 9.9745845 22.06997 10.301869 21.811589 10.568864 C 21.553207 10.827246 21.243147 10.956437 20.881413 10.956437 C 20.674707 10.956437 20.377567 10.853084 19.989994 10.646379 C 19.757451 10.5258 19.533519 10.465511 19.318201 10.465511 C 18.474153 10.465511 17.599958 10.706668 16.695622 11.188981 C 15.791285 11.662681 15.007524 12.394766 14.344344 13.385229 C 13.88787 14.074248 13.556278 14.935524 13.349573 15.969051 C 13.986915 15.435062 14.594114 15.047488 15.171167 14.806331 C 15.74822 14.556562 16.364032 14.431677 17.018599 14.431677 C 18.405249 14.431677 19.619648 14.982894 20.661788 16.085323 C 21.703928 17.187752 22.225 18.5701 22.225 20.232357 C 22.225 21.774035 21.738379 23.022885 20.765141 23.978898 C 19.800515 24.926298 18.487069 25.4 16.824813 25.4 C 15.438164 25.4 14.296973 25.077021 13.401249 24.431067 C 12.505526 23.785112 11.829424 22.790338 11.372949 21.446753 C 10.916475 20.103167 10.688236 18.604547 10.688236 16.950903 C 10.688236 14.969976 11.140406 13.324939 12.044743 12.015804 C 12.949079 10.698057 14.012755 9.6774446 15.235763 8.9539754 C 16.45877 8.2305063 17.750684 7.8687703 19.111495 7.8687703 z M 16.954004 17.080094 C 16.420015 17.080094 15.847266 17.342784 15.235763 17.86816 C 14.632872 18.393536 14.133331 19.125621 13.737146 20.064408 C 14.012753 21.097936 14.383102 21.804182 14.848189 22.183142 C 15.321889 22.562102 15.993685 22.751583 16.86357 22.751583 C 17.733456 22.751583 18.400945 22.523345 18.866032 22.06687 C 19.339732 21.610396 19.576583 20.990277 19.576583 20.206519 C 19.576583 19.310795 19.305281 18.565791 18.762679 17.971513 C 18.22869 17.377235 17.625797 17.080094 16.954004 17.080094 z " />
  </g>
</svg>
